<svg width="483" height="353" viewBox="0 0 483 353" fill="none"
	xmlns="http://www.w3.org/2000/svg">
	<path d="M473.598 111.198L331.798 4.5781C327.825 1.5859 323.103 0 318.146 0C311.029 0 304.228 3.4062 299.955 9.0859L241.334 87.0389L182.725 9.0899C175.186 -0.933103 160.889 -2.9651 150.862 4.5821L9.07193 111.202C-0.959066 118.733 -2.97907 133.018 4.55633 143.054L155.326 343.554C158.983 348.413 164.303 351.562 170.318 352.406C171.404 352.562 172.482 352.644 173.557 352.644C178.459 352.644 183.197 351.07 187.182 348.078L241.342 307.348L295.506 348.078C299.478 351.058 304.193 352.632 309.158 352.632H309.162C316.275 352.632 323.076 349.238 327.35 343.558L478.12 143.058C485.663 133.031 483.643 118.734 473.608 111.203L473.598 111.198ZM175.258 332.188C174.457 332.794 173.649 332.817 173.098 332.755C172.555 332.672 171.781 332.415 171.188 331.618L20.4175 131.118C19.4527 129.829 19.7144 128.016 20.9956 127.059L162.796 20.4192C164.085 19.4622 165.901 19.72 166.866 21.009L228.928 103.536L149.186 209.586C141.647 219.598 143.674 233.898 153.694 241.43L224.827 294.926L175.258 332.188Z" fill="black"/>
</svg>